      _      ____   _____ _ _______
     | |    |___ \ / ____(_)__   __|
 ____| |_____ __) | |_ __ _ __| |_______
 \___| |_____|__ < |_|_ | |__| |_______\
     | |____ ___) | |__| | |  | |
     |______|____/ \_____|_|  |_|

Please Seed

Harry Potter and the Deathly Hallows: Part 1 (2010)
As Harry races against time and evil to destroy the Horcruxes, he uncovers the existence of three most powerful objects in the wizarding world: the Deathly Hallows.

IMDb:
Rating....... 7.7/10 
http://www.imdb.com/title/tt0926084/
Trailer

Media File Details

File size                        : 2.93 GiB
Duration                         : 2h 26mn
Overall bit rate                 : 2 874 Kbps

Video
ID                               : 1
Format                           : AVC
Format profile                   : High@L4.1
Format settings, CABAC           : Yes
Format settings, ReFrames        : 8 frames
Duration                         : 2h 26mn
Bit rate mode                    : Variable
Bit rate                         : 2 487 Kbps
Maximum bit rate                 : 15.9 Mbps
Width                            : 1 280 pixels
Height                           : 536 pixels
Frame rate mode                  : Constant
Frame rate                       : 23.976 fps
Scan type                        : Progressive
Stream size                      : 2.54 GiB (87%)
Title                            : Harry Potter And The Deathly Hallows Part 1[Video] - L3GiT
Writing library                  : x264 core 115 r1995 c1e60b9

Audio
ID                               : 2
Format                           : AAC
Format profile                   : LC
Duration                         : 2h 26mn
Bit rate mode                    : Variable
Bit rate                         : 384 Kbps
Maximum bit rate                 : 401 Kbps
Channel(s)                       : 6 channels
Channel positions                : Front: L C R, Side: L R, LFE
Sampling rate                    : 48.0 KHz
Stream size                      : 401 MiB (13%)
Title                            : Harry Potter And The Deathly Hallows Part 1[Audio] - L3GiT
Language                         : English


NO SUBTITLES!


Sample Included!



FILES
Harry Potter and the Deathly Hallows Part 1 - L3GiT\ - 2.98GB
       Harry Potter and the Deathly Hallows Part 1 - L3GiT.mp4 - 2.93GB
       Screens\ - 7.62MB
              Harry Potter And The Deathly Hallows Part 1 - L3GiT Screen 1.png - 740KB
              Harry Potter And The Deathly Hallows Part 1 - L3GiT Screen 2.png - 520KB
              Harry Potter And The Deathly Hallows Part 1 - L3GiT Screen 3.png - 601KB
              Harry Potter And The Deathly Hallows Part 1 - L3GiT Screen 4.png - 803KB
              Harry Potter And The Deathly Hallows Part 1 - L3GiT Screen 5.png - 536KB
              Harry Potter And The Deathly Hallows Part 1 - L3GiT Screen 6.png - 651KB
              Harry Potter And The Deathly Hallows Part 1 - L3GiT Thumbnails.png - 3.55MB
              Harry Potter And The Deathly Hallows Part 1 Blu-Ray Cover.png - 289KB
       Sample\ - 49.6MB
              Harry Potter And The Deathly Hallows Part 1 Sample - L3GiT.mp4 - 49.6MB

Screens:
 
http://image.bayimg.com/jajlaaadc.jpg
 
http://image.bayimg.com/jajlcaadc.jpg
 
http://image.bayimg.com/jajldaadc.jpg
 
http://image.bayimg.com/jajleaadc.jpg
 
http://image.bayimg.com/jajlfaadc.jpg
 
http://image.bayimg.com/jajlgaadc.jpg



Please Seed

If you have any Request, please post them and I will see what I can do.